<?xml version="1.0" encoding="UTF-8" standalone="no"?>
<svg
   id="svg4715"
   height="32"
   width="32"
   version="1.1"
   sodipodi:docname="background.svg"
   inkscape:version="1.4.2 (ebf0e940d0, 2025-05-08)"
   xmlns:inkscape="http://www.inkscape.org/namespaces/inkscape"
   xmlns:sodipodi="http://sodipodi.sourceforge.net/DTD/sodipodi-0.dtd"
   xmlns:xlink="http://www.w3.org/1999/xlink"
   xmlns="http://www.w3.org/2000/svg"
   xmlns:svg="http://www.w3.org/2000/svg"
   xmlns:rdf="http://www.w3.org/1999/02/22-rdf-syntax-ns#"
   xmlns:cc="http://creativecommons.org/ns#"
   xmlns:dc="http://purl.org/dc/elements/1.1/">
  <sodipodi:namedview
     id="namedview1"
     pagecolor="#ffffff"
     bordercolor="#000000"
     borderopacity="0.25"
     inkscape:showpageshadow="2"
     inkscape:pageopacity="0.0"
     inkscape:pagecheckerboard="0"
     inkscape:deskcolor="#d1d1d1"
     showgrid="false"
     inkscape:current-layer="svg4715">
    <inkscape:page
       x="0"
       y="0"
       width="32"
       height="32"
       id="page2"
       margin="0"
       bleed="0" />
    <inkscape:grid
       id="grid2"
       units="px"
       originx="-42"
       originy="0"
       spacingx="0.5"
       spacingy="0.5"
       empcolor="#0099e5"
       empopacity="0.30196078"
       color="#0099e5"
       opacity="0.078431373"
       empspacing="2"
       enabled="true"
       visible="false" />
  </sodipodi:namedview>
  <defs
     id="defs4717">
    <inkscape:path-effect
       effect="offset"
       id="path-effect3"
       is_visible="true"
       lpeversion="1.3"
       linejoin_type="miter"
       unit="px"
       offset="-0.5"
       miter_limit="4"
       attempt_force_join="false"
       update_on_knot_move="true" />
    <linearGradient
       id="linearGradient3924">
      <stop
         offset="0"
         style="stop-color:#ffffff;stop-opacity:1"
         id="stop3926" />
      <stop
         offset="0.48842448"
         style="stop-color:#ffffff;stop-opacity:0.23529412"
         id="stop3928" />
      <stop
         offset="0.92032248"
         style="stop-color:#ffffff;stop-opacity:0.15686275"
         id="stop3930" />
      <stop
         offset="1"
         style="stop-color:#ffffff;stop-opacity:0.39215687"
         id="stop3932" />
    </linearGradient>
    <linearGradient
       gradientTransform="matrix(0.67567568,0,0,0.67567572,-0.2162133,-0.21620907)"
       gradientUnits="userSpaceOnUse"
       xlink:href="#linearGradient3924"
       id="linearGradient3027"
       y2="41.759991"
       x2="23.999996"
       y1="4.8380289"
       x1="23.999996" />
    <linearGradient
       xlink:href="#linearGradient3600-9-51"
       id="linearGradient1512"
       gradientUnits="userSpaceOnUse"
       gradientTransform="matrix(0.66466012,0,0,0.63927116,-33.192185,0.41295999)"
       x1="74.838791"
       y1="2.8208654"
       x2="74.838791"
       y2="49.101067" />
    <linearGradient
       id="linearGradient3600-9-51">
      <stop
         offset="0"
         style="stop-color:#f4f4f4;stop-opacity:1"
         id="stop3602-0-0" />
      <stop
         offset="1"
         style="stop-color:#dbdbdb;stop-opacity:1"
         id="stop3604-9-04" />
    </linearGradient>
    <linearGradient
       id="linearGradient3104-6">
      <stop
         offset="0"
         style="stop-color:#000000;stop-opacity:0.31782946"
         id="stop3106-3" />
      <stop
         offset="1"
         style="stop-color:#000000;stop-opacity:0.24031007"
         id="stop3108-9" />
    </linearGradient>
    <linearGradient
       xlink:href="#linearGradient3104-6"
       id="linearGradient1572"
       gradientUnits="userSpaceOnUse"
       gradientTransform="matrix(0.74768596,0,0,0.8350718,-41.069832,-7.5925293)"
       x1="72.893349"
       y1="43.73991"
       x2="72.893349"
       y2="12.523938" />
    <radialGradient
       cx="99.157013"
       cy="186.17059"
       r="62.769119"
       fx="99.157013"
       fy="186.17059"
       id="radialGradient3108"
       xlink:href="#linearGradient3820-7-2-2"
       gradientUnits="userSpaceOnUse"
       gradientTransform="matrix(0.21472742,0,0,0.06794726,-5.2917311,15.085235)" />
    <linearGradient
       id="linearGradient3820-7-2-2">
      <stop
         offset="0"
         style="stop-color:#3d3d3d;stop-opacity:1"
         id="stop3822-2-6-36" />
      <stop
         offset="0.5"
         style="stop-color:#686868;stop-opacity:0.49803922"
         id="stop3864-8-7-6" />
      <stop
         offset="1"
         style="stop-color:#686868;stop-opacity:0"
         id="stop3824-1-2-4" />
    </linearGradient>
    <linearGradient
       inkscape:collect="always"
       xlink:href="#linearGradient103"
       id="linearGradient155"
       x1="84.134399"
       y1="16.668701"
       x2="84.134598"
       y2="22.489584"
       gradientUnits="userSpaceOnUse"
       gradientTransform="matrix(3.7795276,0,0,3.7795276,-301.98829,-53.999817)" />
    <linearGradient
       id="linearGradient103"
       inkscape:collect="always">
      <stop
         style="stop-color:#fafafa;stop-opacity:1;"
         offset="0"
         id="stop102" />
      <stop
         style="stop-color:#e0e0e0;stop-opacity:1;"
         offset="0.56521738"
         id="stop104" />
      <stop
         style="stop-color:#fafafa;stop-opacity:1;"
         offset="1"
         id="stop103" />
    </linearGradient>
    <linearGradient
       inkscape:collect="always"
       xlink:href="#linearGradient162"
       id="linearGradient159"
       x1="84.134399"
       y1="15.081202"
       x2="84.134598"
       y2="22.489584"
       gradientUnits="userSpaceOnUse"
       gradientTransform="matrix(3.7795276,0,0,3.7795276,-301.98829,-53.999817)" />
    <linearGradient
       id="linearGradient162"
       inkscape:collect="always">
      <stop
         style="stop-color:#ffffff;stop-opacity:1;"
         offset="0"
         id="stop159" />
      <stop
         style="stop-color:#ffffff;stop-opacity:0.25;"
         offset="0.48275864"
         id="stop160" />
      <stop
         style="stop-color:#ffffff;stop-opacity:0.15000001;"
         offset="0.72413796"
         id="stop161" />
      <stop
         style="stop-color:#ffffff;stop-opacity:0.5;"
         offset="1"
         id="stop162" />
    </linearGradient>
    <radialGradient
       inkscape:collect="always"
       xlink:href="#linearGradient3820-7-2-2"
       id="radialGradient4"
       gradientUnits="userSpaceOnUse"
       gradientTransform="matrix(0.21472742,0,0,0.06794726,-5.291731,15.085235)"
       cx="99.157013"
       cy="186.17059"
       fx="99.157013"
       fy="186.17059"
       r="62.769119" />
  </defs>
  <metadata
     id="metadata4720">
    <rdf:RDF>
      <cc:Work
         rdf:about="">
        <dc:format>image/svg+xml</dc:format>
        <dc:type
           rdf:resource="http://purl.org/dc/dcmitype/StillImage" />
      </cc:Work>
    </rdf:RDF>
  </metadata>
  <path
     d="m 29.47825,27.735011 a 13.478251,4.2649887 0 0 1 -26.956502,0 13.478251,4.2649887 0 1 1 26.956502,0 z"
     id="path4"
     style="opacity:0.5;fill:url(#radialGradient4);fill-opacity:1;stroke:none;stroke-width:1" />
  <path
     id="path147"
     style="fill:url(#linearGradient155);fill-opacity:1;stroke:none;stroke-width:0.999999;stroke-linecap:round;stroke-linejoin:round;stroke-dasharray:none;stroke-opacity:0.5"
     d="m 16,2 c -5.508529,0 -9.965552,4.4500989 -9.965552,9.95817 7.14e-4,11.871092 -2.701119,14.320201 -3.860731,16.048718 0.14007,0.131755 0.326287,0.271371 0.568407,0.406005 0.406821,0.226167 0.968175,0.439389 1.697836,0.63484 C 6.628941,29.634088 10.32253,30 16,30 c 5.677467,0 9.371055,-0.365896 11.560037,-0.952267 0.729664,-0.19544 1.291015,-0.408654 1.697835,-0.63484 0.242117,-0.134627 0.428327,-0.27428 0.568407,-0.406005 C 28.666324,26.278926 25.958882,23.829368 25.958167,11.95817 25.958167,6.4496114 21.508526,2 16,2 Z"
     sodipodi:nodetypes="scccccssccs" />
  <path
     id="path154"
     style="fill:none;fill-opacity:1;stroke:url(#linearGradient159);stroke-width:0.999999;stroke-linecap:round;stroke-linejoin:round;stroke-dasharray:none;stroke-opacity:1"
     d="m 15.99997,2.5 c -5.238478,0 -9.463585,4.2186029 -9.463585,9.4562 6.76e-4,11.235852 -2.416646,13.961016 -3.683547,15.934568 0.04225,0.02646 0.08432,0.0542 0.132888,0.08118 0.357506,0.198766 0.885479,0.409992 1.587107,0.597933 C 6.677724,29.133711 10.34348,29.500004 16,29.5 c 5.656517,4e-6 9.322273,-0.366274 11.427164,-0.930119 0.701631,-0.187956 1.229613,-0.399167 1.587107,-0.597933 0.04849,-0.02683 0.09067,-0.05495 0.132888,-0.08118 C 27.879483,25.917957 25.456877,23.192475 25.456201,11.9562 25.456201,6.7176618 21.238475,2.5 16,2.5 Z"
     sodipodi:nodetypes="scccccssccss" />
  <path
     id="path3"
     style="fill:none;fill-opacity:1;stroke:#000000;stroke-width:0.999999;stroke-linecap:round;stroke-linejoin:round;stroke-dasharray:none;stroke-opacity:0.3"
     d="M 30.500748,28.000189 C 29.500749,26.500189 26.500752,24.500001 26.5,11.999815 26.5,6.2008252 21.79899,1.4998148 16,1.4998148 V 1.5 C 10.20101,1.5 5.5,6.2010104 5.5,12 5.500752,24.500001 2.500745,26.500189 1.500746,28.000189 m 7.000003,-6.500001 c 0,2.000001 -1.000003,6 -2.000001,7.000002 m 19.000002,0 C 24.500748,27.500188 23.500749,23.500189 23.500749,21.500188 M 6.500748,28.50019 C 4.000745,29.500189 2.500745,29.000188 1.50075,28.000189 m 24,0.500001 c 2.499999,0.999999 3.999999,0.499998 5.000002,-0.500001 M 6.500748,28.50019 c 1.499996,1.5 6,1.999998 9.500005,2.000001 3.499994,-3e-6 7.999994,-0.500001 9.499997,-2.000001 M 1.5,28 c 1,1.5 9,2.5 14.5,2.5 5.5,0 13.5,-1 14.5,-2.5"
     sodipodi:nodetypes="cccccccccccccccsccsc" />
  <rect
     style="font-variation-settings:normal;opacity:0.5;vector-effect:none;fill:#fafafa;fill-opacity:1;stroke:none;stroke-width:0.999924;stroke-linecap:butt;stroke-linejoin:round;stroke-miterlimit:4;stroke-dasharray:none;stroke-dashoffset:0;stroke-opacity:1;-inkscape-stroke:none;marker:none"
     id="rect3-7-7"
     width="3"
     height="8"
     x="11"
     y="11"
     rx="1.4096211"
     ry="1.4096211" />
  <rect
     style="font-variation-settings:normal;opacity:0.5;vector-effect:none;fill:#fafafa;fill-opacity:1;stroke:none;stroke-width:0.999924;stroke-linecap:butt;stroke-linejoin:round;stroke-miterlimit:4;stroke-dasharray:none;stroke-dashoffset:0;stroke-opacity:1;-inkscape-stroke:none;marker:none"
     id="rect3-5-5-5"
     width="3"
     height="8"
     x="18"
     y="11"
     rx="1.4096211"
     ry="1.4096211" />
  <rect
     style="font-variation-settings:normal;vector-effect:none;fill:#555761;fill-opacity:1;stroke:none;stroke-width:0.999924;stroke-linecap:butt;stroke-linejoin:round;stroke-miterlimit:4;stroke-dasharray:none;stroke-dashoffset:0;stroke-opacity:1;-inkscape-stroke:none;marker:none"
     id="rect3-92"
     width="3"
     height="8"
     x="11"
     y="9.999999"
     rx="1.4096211"
     ry="1.4096211" />
  <rect
     style="font-variation-settings:normal;vector-effect:none;fill:#555761;fill-opacity:1;stroke:none;stroke-width:0.999924;stroke-linecap:butt;stroke-linejoin:round;stroke-miterlimit:4;stroke-dasharray:none;stroke-dashoffset:0;stroke-opacity:1;-inkscape-stroke:none;marker:none"
     id="rect3-5-2"
     width="3"
     height="8"
     x="18"
     y="9.999999"
     rx="1.4096211"
     ry="1.4096211" />
  <path
     id="rect3-9-7"
     style="font-variation-settings:normal;opacity:0.5;vector-effect:none;fill:#0e141f;fill-opacity:1;stroke:none;stroke-width:0.999924;stroke-linecap:butt;stroke-linejoin:round;stroke-miterlimit:4;stroke-dasharray:none;stroke-dashoffset:0;stroke-opacity:1;-inkscape-stroke:none;marker:none"
     d="M 12.410156,9.9921865 C 11.629228,9.9921865 11,10.621415 11,11.402343 v 1 c 0,-0.780928 0.629228,-1.410156 1.410156,-1.410156 h 0.179688 C 13.370772,10.992187 14,11.621415 14,12.402343 v -1 C 14,10.621415 13.370772,9.9921865 12.589844,9.9921865 Z m 7,0 C 18.629228,9.9921865 18,10.621415 18,11.402343 v 1 c 0,-0.780928 0.629228,-1.410156 1.410156,-1.410156 h 0.179688 C 20.370772,10.992187 21,11.621415 21,12.402343 v -1 C 21,10.621415 20.370772,9.9921865 19.589844,9.9921865 Z" />
</svg>
